<svg width="118" height="104" viewBox="0 0 118 104" fill="none" xmlns="http://www.w3.org/2000/svg">
<path d="M54.7365 20.4627V70.795C54.7365 70.795 73.2527 61.2118 98.0222 69.9092V15.3087C95.261 13.6981 87.7895 9.75203 77.6381 10.3158C64.9692 11.0405 56.848 18.3689 54.7365 20.3822C52.5438 18.3689 44.5039 11.1211 31.835 10.3158C21.846 9.6715 14.3745 13.6175 11.4509 15.3087V70.7145C15.2679 68.8623 22.4957 65.9631 31.835 65.7215C42.0676 65.4799 49.9451 68.4596 54.0869 70.4729" stroke="white" stroke-linecap="round" stroke-linejoin="round"/>
<path d="M49.2947 26.0999C45.2342 23.4424 39.387 20.8654 31.9155 20.3017C26.3119 19.899 21.5205 21.0264 17.866 22.3149" stroke="white" stroke-linecap="round" stroke-linejoin="round"/>
<path d="M49.458 40.4346C45.3162 38.1797 39.2254 35.7637 31.7539 35.9248C26.1503 35.9248 21.3589 37.4549 17.948 38.9045" stroke="white" stroke-linecap="round" stroke-linejoin="round"/>
<path d="M49.5392 55.2524C45.235 53.078 39.1441 51.1453 31.5915 51.4674C25.9879 51.709 21.3589 53.3196 17.948 55.0108" stroke="white" stroke-linecap="round" stroke-linejoin="round"/>
<path d="M60.5835 26.0999C64.6441 23.4424 70.4913 20.8654 77.9627 20.3017C83.5663 19.899 88.3578 21.0264 92.0123 22.3149" stroke="white" stroke-linecap="round" stroke-linejoin="round"/>
<path d="M60.4207 40.4346C64.5624 38.1797 70.6533 35.7637 78.1247 35.9248C83.7283 35.9248 88.5198 37.4549 91.9306 38.9045" stroke="white" stroke-linecap="round" stroke-linejoin="round"/>
<path d="M60.4207 55.2524C64.7249 53.078 70.8157 51.1453 78.3683 51.4674C83.9719 51.709 88.601 53.3196 92.0118 55.0108" stroke="white" stroke-linecap="round" stroke-linejoin="round"/>
<path d="M12.1357 19.0937C5.96364 19.2548 1.90308 22.2344 1.90308 22.2344V85.935C15.8714 79.2508 27.0786 78.1234 34.9561 78.365C43.7269 78.6066 47.7875 79.3314 54.6904 81.6668" stroke="white" stroke-linecap="round" stroke-linejoin="round"/>
<path d="M98.1028 19.1743C104.275 19.3353 108.335 22.315 108.335 22.315V86.0155C94.3671 79.3314 83.1599 78.204 75.2824 78.4456C66.5116 78.6872 62.0961 79.3008 55.1931 81.6363" stroke="white" stroke-linecap="round" stroke-linejoin="round"/>
<path d="M107.28 94.1492L115.076 86.4182L103.301 74.8216L115.076 67.0906L79.9119 59.279L87.7081 94.1492L95.5044 82.5526L107.28 94.1492Z" fill="#2CA58F" stroke="white" stroke-linecap="round" stroke-linejoin="round"/>
</svg>
